<svg xmlns="http://www.w3.org/2000/svg" viewBox="0 0 48 48" fill="none">
  <path d="M11 4h20l6 6v30a3 3 0 0 1-3 3H11a3 3 0 0 1-3-3V7a3 3 0 0 1 3-3z" stroke="currentColor" stroke-width="2.2" fill="none"/>
  <path d="M31 4v6h6" stroke="currentColor" stroke-width="2.2" stroke-linejoin="round" fill="none"/>
  <line x1="14" y1="16" x2="34" y2="16" stroke="currentColor" stroke-width="1" opacity="0.4"/>
  <line x1="14" y1="21" x2="34" y2="21" stroke="currentColor" stroke-width="1" opacity="0.4"/>
  <line x1="14" y1="26" x2="34" y2="26" stroke="currentColor" stroke-width="1" opacity="0.4"/>
  <line x1="14" y1="31" x2="34" y2="31" stroke="currentColor" stroke-width="1" opacity="0.4"/>
  <line x1="14" y1="36" x2="34" y2="36" stroke="currentColor" stroke-width="1" opacity="0.4"/>
  <line x1="26" y1="13" x2="26" y2="29" stroke="currentColor" stroke-width="2.2" stroke-linecap="round"/>
  <ellipse cx="21.5" cy="29.5" rx="4.5" ry="3" transform="rotate(-15 21.5 29.5)" fill="currentColor"/>
  <path d="M26 13c4.5 1.5 5.5 5.5 3 8.5" stroke="currentColor" stroke-width="2" stroke-linecap="round" fill="none"/>
</svg>
